**********************************************
Torrent Title : Killers R5 LiNE H264 FEEL-FREE
----------------------------------------------

Genre: Action/Comedy/Romance/Thriller
Language:English
IMDb:http://www.imdb.com/title/tt1103153/
Source Video:DVD RUS.Thanks
Source Audio:ORC Thanks
Subtitles: ROMANA
Encoder: Tony2

..............................................

General

Complete name : Killers R5 LiNE H264 FEEL-FREE
Format : MPEG-4
Format profile : Base Media
Codec ID : isom
File size : 1 015 MiB
Duration : 1h 29mn
Overall bit rate : 1 584 Kbps

..............................................


Video

ID : 2
Format : AVC
Format/Info : Advanced Video Codec
Format profile : Baseline@L1.3
Format settings, CABAC : No
Format settings, ReFrames : 1 frame
Codec ID : avc1
Codec ID/Info : Advanced Video Coding
Duration : 1h 29mn
Bit rate mode : Variable
Bit rate : 1 496 Kbps
Width : 720 pixels
Height : 304 pixels
Display aspect ratio : 2.35:1
Frame rate mode : Constant
Frame rate : 25.000 fps
Resolution : 24 bits
Colorimetry : 4:2:0
Scan type : Progressive
Bits/(Pixel*Frame) : 0.273
Stream size : 958 MiB (94%)
Writing library : ╕x──o / ╚i≈Ål Å0≡@
Language : English

...............................................

Audio

ID : 1
Format : AAC
Format/Info : Advanced Audio Codec
Format version : Version 4
Format profile : LC
Format settings, SBR : No
Codec ID : 40
Duration : 1h 29mn
Bit rate mode : Constant
Bit rate : 128 Kbps
Channel(s) : 6 channels
Channel positions : Front: L C R, Rear: L R, LFE
Sampling rate : 44.1 KHz
Resolution : 16 bits
Stream size : 53.4 MiB (5%)
Language : English

...............................................

Plot:

A vacationing woman meets her ideal man, leading to a swift marriage. Back at home, however, their idyllic life is upset when they discover their neighbors could be assassins who have been contracted to kill the couple

...................................................

Screenshots: 
http://postimg.com/image/18000/17526.jpg 
http://postimg.com/image/18000/17527.jpg

......................................................

A


 ####### ####### ####### #             ####### ######  ####### ####### 
 #       #       #       #             #       #     # #       #       
 #       #       #       #             #       #     # #       #       
 #####   #####   #####   #       ##### #####   ######  #####   #####   
 #       #       #       #             #       #   #   #       #       
 #       #       #       #             #       #    #  #       #       
 #       ####### ####### #######       #       #     # ####### ####### 


  
                    ####### #######    #    #     # 
                       #    #         # #   ##   ## 
                       #    #        #   #  # # # # 
                       #    #####   #     # #  #  # 
                       #    #       ####### #     # 
                       #    #       #     # #     # 
                       #    ####### #     # #     #      
  

                                Release

...........................................................................
.................................................................................